<svg id="visual" viewBox="0 0 96 96" width="96" height="96" xmlns="http://www.w3.org/2000/svg" xmlns:xlink="http://www.w3.org/1999/xlink" version="1.1"><rect x="0" y="0" width="96" height="96" fill="#140021"></rect><path d="M0 30L14 30L14 19L27 19L27 30L41 30L41 20L55 20L55 35L69 35L69 32L82 32L82 29L96 29L96 32L96 97L96 97L82 97L82 97L69 97L69 97L55 97L55 97L41 97L41 97L27 97L27 97L14 97L14 97L0 97Z" fill="#9900ff"></path><path d="M0 45L14 45L14 45L27 45L27 33L41 33L41 44L55 44L55 43L69 43L69 50L82 50L82 46L96 46L96 44L96 97L96 97L82 97L82 97L69 97L69 97L55 97L55 97L41 97L41 97L27 97L27 97L14 97L14 97L0 97Z" fill="#8800e2"></path><path d="M0 62L14 62L14 62L27 62L27 52L41 52L41 59L55 59L55 49L69 49L69 49L82 49L82 53L96 53L96 55L96 97L96 97L82 97L82 97L69 97L69 97L55 97L55 97L41 97L41 97L27 97L27 97L14 97L14 97L0 97Z" fill="#7700c6"></path><path d="M0 62L14 62L14 65L27 65L27 70L41 70L41 72L55 72L55 62L69 62L69 73L82 73L82 72L96 72L96 62L96 97L96 97L82 97L82 97L69 97L69 97L55 97L55 97L41 97L41 97L27 97L27 97L14 97L14 97L0 97Z" fill="#6600ab"></path><path d="M0 78L14 78L14 81L27 81L27 87L41 87L41 81L55 81L55 74L69 74L69 76L82 76L82 83L96 83L96 82L96 97L96 97L82 97L82 97L69 97L69 97L55 97L55 97L41 97L41 97L27 97L27 97L14 97L14 97L0 97Z" fill="#560090"></path></svg>